<?xml version="1.0" encoding="UTF-8" standalone="no"?>
<!-- Created with Inkscape (http://www.inkscape.org/) -->

<svg
   version="1.1"
   id="svg1"
   width="1130"
   height="1600"
   viewBox="0 0 1130 1600"
   sodipodi:docname="Logo JP SVG.svg"
   inkscape:version="1.3.2 (091e20e, 2023-11-25, custom)"
   xmlns:inkscape="http://www.inkscape.org/namespaces/inkscape"
   xmlns:sodipodi="http://sodipodi.sourceforge.net/DTD/sodipodi-0.dtd"
   xmlns="http://www.w3.org/2000/svg"
   xmlns:svg="http://www.w3.org/2000/svg">
  <defs
     id="defs1" />
  <sodipodi:namedview
     id="namedview1"
     pagecolor="#505050"
     bordercolor="#eeeeee"
     borderopacity="1"
     inkscape:showpageshadow="0"
     inkscape:pageopacity="0"
     inkscape:pagecheckerboard="0"
     inkscape:deskcolor="#505050"
     showgrid="false"
     inkscape:zoom="0.485625"
     inkscape:cx="565.25097"
     inkscape:cy="964.73616"
     inkscape:window-width="1920"
     inkscape:window-height="991"
     inkscape:window-x="-9"
     inkscape:window-y="-9"
     inkscape:window-maximized="1"
     inkscape:current-layer="g1" />
  <g
     inkscape:groupmode="layer"
     inkscape:label="Image"
     id="g1">
    <path
       style="fill:#000000"
       d="m 550.59203,1094.0272 c -7.975,-0.9737 -16.3,-2.0204 -18.5,-2.3262 -23.8259,-3.3112 -58.1018,-12.4467 -80.5,-21.4553 -10.6045,-4.2652 -30.4045,-13.2872 -31,-14.1253 -0.275,-0.3871 -4.3994,-2.8148 -9.1652,-5.395 -21.5559,-11.6702 -36.1728,-22.0635 -58.3348,-41.4789 -40.5668,-35.53905 -65.8984,-67.26075 -84.5583,-105.88865 -17.3236,-35.8615 -28.1167,-66.33203 -33.5837,-94.81152 -0.4223,-2.2 -0.8147,-4.225 -0.872,-4.5 -4.87823,-23.40812 -6.52122,-66.78194 -3.63644,-96 1.35424,-13.71623 1.48861,-14.75795 3.03121,-23.5 3.39823,-19.25805 4.18433,-23.42928 5.18263,-27.5 0.607,-2.475 1.2645,-5.28383 1.4611,-6.24185 4.8358,-23.56243 23.3938,-73.67642 29.571,-79.85368 1.1325,-1.13251 1.8045,-2.72269 1.4933,-3.53373 -0.3634,-0.9468 -0.1512,-1.21834 0.5926,-0.75863 0.7807,0.4825 0.9437,0.15641 0.5,-1 -0.372,-0.96929 -0.2502,-1.46363 0.2799,-1.13604 0.5161,0.31897 1.4109,-0.30307 1.9885,-1.38232 1.3883,-2.59398 1.326,-3.37051 -0.1998,-2.49244 -0.7263,0.41793 -0.9008,0.33791 -0.4167,-0.19098 0.4584,-0.50068 1.2101,-0.91033 1.6706,-0.91033 1.8914,0 25.3526,-38.1142 24.405,-39.64745 -0.4377,-0.70816 -0.282,-0.89217 0.3988,-0.4714 1.3883,0.85802 6.6501,-6.83135 5.7126,-8.34821 -0.3679,-0.59537 -0.2064,-0.95884 0.359,-0.80772 0.5654,0.15113 5.2113,-4.93347 10.3243,-11.29911 33.9405,-42.25556 77.7548,-76.20613 125.7964,-97.47647 5.775,-2.55686 13.2,-5.90386 16.5,-7.43776 7.2907,-3.38888 30.3509,-11.00141 44,-14.5251 33.1669,-8.56251 67.6266,-12.23021 104,-11.06922 36.2879,1.15826 58.0627,4.51803 92.5,14.27236 12.4477,3.52581 34.0482,11.11792 35,12.30173 0.275,0.34204 2.075,1.24469 4,2.00588 31.3942,12.414 68.7961,35.83534 99.3063,62.18646 9.9762,8.61622 31.2413,30.81419 41.0168,42.81601 5.0126,6.15419 21.261,29.92967 32.6001,47.70194 8.2859,12.98683 22.3497,44.02904 29.5634,65.25325 4.9889,14.67851 12.3191,44.99207 13.915,57.54481 0.2798,2.2 0.9756,7.375 1.5465,11.5 2.4542,17.73559 3.246,48.4888 1.7892,69.5 -2.6342,37.99452 -9.9306,69.49438 -25.5954,110.50002 -2.816,7.3715 -17.0299,36.2421 -22.2848,45.2641 -5.6409,9.6846 -16.6367,26.5038 -19.803,30.2906 -1.4048,1.6801 -3.6791,4.5845 -5.0541,6.4542 -11.9628,16.2672 -40.1293,45.3633 -60.0104,61.99115 -2.9593,2.475 -6.98,5.9071 -8.935,7.6269 -12.0536,10.6033 -58.2041,38.6489 -77.6369,47.1798 -18.869,8.2834 -52.9124,19.8336 -66.6096,22.5991 -1.2694,0.2563 -4.5581,0.9517 -7.3081,1.5453 -4.2868,0.9252 -18.2738,3.3729 -26.5,4.6374 -3.1963,0.4914 -18.7604,2.2082 -31,3.4196 -14.4138,1.4266 -40.7942,0.9512 -57,-1.0273 z m -80.856,-114.08665 c 12.6947,-1.3555 12.997,-1.3984 14.856,-2.1089 0.825,-0.3153 6,-1.584 11.5,-2.8193 12.2357,-2.7482 24.3086,-6.8943 35.3008,-12.1229 11.7535,-5.5909 31.5458,-19.1677 39.1992,-26.8893 13.7155,-13.8379 28.1832,-40.3761 34.7658,-63.771 l 2.7245,-9.6828 -0.4952,-133.00002 c -0.2723,-73.15 -0.4951,-150.775 -0.4951,-172.5 v -39.5 h 57.5 c 60.0078,0 63.0507,0.178 77.671,4.54353 16.4886,4.92337 28.4239,11.80769 38.829,22.39665 8.3,8.44666 13.5955,17.11316 17.1456,28.05982 4.645,14.32271 4.2753,37.07326 -0.8939,55 -6.1959,21.48733 -24.8887,39.2254 -49.4989,46.97083 -14.2436,4.48281 -17.6336,4.73196 -71.0148,5.21929 l -51.2619,0.46797 0.2619,37.67096 0.262,37.67095 56,-0.0685 c 51.1469,-0.0625 65.8005,-0.61225 77.5,-2.90737 1.375,-0.26974 3.85,-0.76269 5.5,-1.09546 24.0483,-4.84993 49.6797,-16.79215 68.2585,-31.8031 8.5149,-6.87977 22.2778,-21.76814 29.7637,-32.19766 10.5141,-14.64865 21.2215,-39.82751 25.0944,-59.011 2.5872,-12.81444 2.6261,-46.44035 0.068,-58.41695 -2.8165,-13.18494 -7.1598,-25.32247 -14.1347,-39.5 -12.1591,-24.71535 -20.4499,-34.82036 -46.5495,-56.73544 -7.9901,-6.70908 -28.0018,-17.39023 -41.5,-22.15049 -28.4485,-10.03259 -37.5396,-10.60591 -168.25,-10.61049 -80.3327,-0.003 -101.251,0.2547 -101.2548,1.24646 0,0.6875 -5e-4,91.53661 0,201.88692 0.01,212.4612 0.1186,207.07257 -4.4235,219.7232 -2.5381,7.0691 -8.5444,16.1213 -14.752,22.2333 -10.8541,10.6869 -31.0608,18.9708 -46.0324,18.8715 -20.5757,-0.1366 -44.3394,-13.779 -55.1218,-31.6445 -8.8353,-14.6389 -10.486,-24.77326 -10.5994,-65.07042 l -0.071,-25.25 h -44.5 -44.5 l 0.016,27.25 c 0.013,23.05381 0.8397,41.58422 2.3523,52.75002 0.7234,5.3406 4.8655,20.2302 7.2823,26.178 10.2819,25.304 24.4626,44.005 44.8496,59.1465 9.9654,7.4014 28.6903,17.0742 41,21.1796 9.2297,3.0783 28.4725,7.4959 32.6514,7.4959 1.5667,0 2.8486,0.3929 2.8486,0.8732 0,0.4802 1.9125,0.9435 4.25,1.0295 2.3375,0.086 7.85,0.5302 12.25,0.987 11.7582,1.2208 14.2496,1.2212 25.644,0 z m 178.6296,-174.65703 0.2736,-17.23719 h 5.9764 c 5.7081,0 5.9764,-0.11221 5.9764,-2.5 v -2.5 h -14.5 -14.5 v 2.5 c 0,2.41026 0.2333,2.5 6.5,2.5 h 6.5 v 17.57332 c 0,16.19789 0.137,17.54702 1.75,17.2372 1.5731,-0.30215 1.7776,-2.07873 2.0236,-17.57333 z m 28.5276,12.72334 2.1291,-5.03946 6.9045,0.28946 6.9044,0.28947 1.6548,4.5 c 1.1946,3.24874 2.2736,4.58885 3.8804,4.81955 1.2241,0.17575 2.2256,0.12682 2.2256,-0.10874 0,-0.54477 -6.7125,-18.45017 -11.3256,-30.21081 -2.7586,-7.0327 -3.689,-8.56282 -4.2565,-7 -0.3995,1.1 -3.5819,9.33765 -7.0721,18.30589 -3.4902,8.96825 -6.3458,16.95575 -6.3458,17.75 0,3.3998 3.2879,1.16986 5.3012,-3.59536 z m 5.0382,-11.90737 c 0.3241,-1.62076 1.313,-4.65826 2.1975,-6.75 l 1.6082,-3.80316 2.4274,5.91987 c 1.3351,3.25593 2.4275,6.29343 2.4275,6.75 0,0.45657 -2.0813,0.83013 -4.625,0.83013 -4.587,0 -4.6202,-0.0242 -4.0356,-2.94684 z m 45.4342,-0.81597 0.2736,-17.23719 h 5.8097 c 6.5164,0 7.1397,-0.297 6.4177,-3.0579 -0.4731,-1.80924 -1.4918,-1.9421 -14.8912,-1.9421 h -14.3834 v 2.5 c 0,2.41026 0.2333,2.5 6.5,2.5 h 6.5 v 17.57332 c 0,16.19789 0.137,17.54702 1.75,17.2372 1.5731,-0.30215 1.7776,-2.07873 2.0236,-17.57333 z m 39.9998,0.0471 0.2734,-17.19008 6.2266,-0.29711 c 5.5894,-0.26671 6.2593,-0.52735 6.5461,-2.54711 0.3193,-2.24793 0.3057,-2.25 -14.75,-2.25 h -15.0695 v 2.5 c 0,2.41026 0.2333,2.5 6.5,2.5 h 6.5 v 17.57332 c 0,16.19789 0.137,17.54702 1.75,17.2372 1.5728,-0.3021 1.7777,-2.0764 2.0234,-17.52622 z m 45.2723,15.0053 c 5.3053,-3.08324 6.9546,-7.08198 6.9505,-16.85148 0,-10.43768 -1.5168,-13.84783 -7.9401,-17.9027 -4.9284,-3.11114 -8.3487,-3.17796 -13.5561,-0.26485 -6.2412,3.49143 -8.6241,9.1537 -8.1526,19.3726 0.3782,8.19687 1.7899,11.73613 6.1121,15.3232 3.7488,3.11128 11.528,3.26288 16.5862,0.32323 z m -11.7202,-2.77298 c -4.3249,-1.8482 -6.3025,-5.23788 -6.9132,-11.84974 -1.0289,-11.14024 2.9692,-17.66687 10.8225,-17.66687 3.1761,0 4.6418,0.67663 7.3652,3.4 3.265,3.26502 3.4,3.69913 3.4,10.9349 0,4.1442 -0.4299,8.66566 -0.9554,10.0477 -1.8303,4.81415 -8.5677,7.33543 -13.7191,5.13402 z m 52.1391,2.59891 c 5.0423,-2.86811 6.6288,-6.84887 6.746,-16.92661 0.087,-7.46779 -0.2438,-9.50658 -2.0039,-12.35444 -2.256,-3.65024 -9.0126,-7.85256 -12.5512,-7.80631 -4.4892,0.0587 -10.9653,4.41713 -13.3976,9.0167 -4.0648,7.68654 -2.276,22.1805 3.3469,27.11993 4.4089,3.87294 12.0109,4.27762 17.8598,0.95073 z m -12.1391,-2.55197 c -3.9529,-1.74766 -6.029,-4.83909 -6.8954,-10.26753 -1.7683,-11.07902 2.8889,-19.31646 10.8968,-19.27379 4.416,0.0235 7.6535,1.94177 9.556,5.66202 1.3658,2.67064 1.4746,15.24533 0.1617,18.69834 -1.8704,4.91963 -8.5796,7.45331 -13.7191,5.18096 z m -1.3255,-337.06355 c -0.8601,-1.03636 -0.898,-1.5 -0.1225,-1.5 0.6174,0 1.1225,-0.45381 1.1225,-1.00847 0,-0.61076 -0.7594,-0.53421 -1.9257,0.19411 -1.7842,1.11426 -1.8025,1.29619 -0.25,2.47668 2.2533,1.71329 2.6831,1.65396 1.1757,-0.16232 z m -8.0833,-9.86455 c -0.2292,-0.2005 -1.5417,-0.90032 -2.9167,-1.55516 -2.3573,-1.12265 -2.3892,-1.10183 -0.5589,0.36454 1.593,1.27626 4.8479,2.39128 3.4756,1.19062 z"
       id="path1" />
  </g>
</svg>
